<svg xmlns="http://www.w3.org/2000/svg" width="394.358" height="57.526" viewBox="0 0 394.358 57.526">
  <g id="Group_2" data-name="Group 2" transform="translate(-770 -512.252)">
    <g id="Group_1" data-name="Group 1">
      <path id="Path_2_1_" d="M218.8,22.1c7.7-2.7,11.4-2.2,18,2.8,4.5-3.8,9.8-4.9,15.6-4.2,6.1.8,9.6,3.9,10.1,10,.7,8.5.7,17,1,25.9H252v-17c0-1.6.1-3.2,0-4.8-.3-4.2-2-6.1-5.4-6.3-3.7-.2-6.6,1.8-6.9,5.7-.4,5.4-.2,10.9-.2,16.3v6.1h-11V41.7c0-2.6,0-5.2-.2-7.8-.4-3.8-1.9-5.3-5.2-5.5-3.5-.1-6.1,1.7-6.8,5a22.4,22.4,0,0,0-.3,5.2V56.5H205.3V21.2h10.3l.9,2.5Z" transform="translate(756.013 507.952)" fill="#6466ae"/>
      <path id="Path_3_1_" d="M170.2,55.8c-12.1,6.3-24.6-5.4-24.6-16,0-5.6,1.2-10.4,5.2-14.5,6.1-5.2,12.9-6.3,20.7-2.5V4.3h10.7V56.7l-9.7.5-.9-.6-.3-1.2Zm-13.5-17c-.1,5.5,3.2,10,7.5,10.3,4.4.4,8.1-3.5,8.8-9.1.6-5.4-3.2-11-7.7-11.3C160.7,28.3,156.8,33,156.7,38.8Z" transform="translate(756.013 507.952)" fill="#6466ae"/>
      <path id="Path_4_1_" d="M198.3,21.2V56.7H187.9V21.2Z" transform="translate(756.013 507.952)" fill="#6466ae"/>
      <path id="Path_5_1_" d="M193,16a5.61,5.61,0,0,1-5.7-5.2,5.558,5.558,0,0,1,5.8-5.5,5.409,5.409,0,0,1,5.6,5.6C198.6,13.9,196.2,16,193,16Z" transform="translate(756.013 507.952)" fill="#6466ae"/>
      <path id="Path_6_1_" d="M285.4,23.1c.1-1.1.1-2.2,1.8-2.1q3.15.15,6.3,0c1.9-.1,3.1.4,2.9,3.1,4.3-2.8,8.5-4.1,13.3-3.3,5.2.9,8.2,3.4,9.4,8.6a38.052,38.052,0,0,1,.7,5.9c.1,7,0,14.1,0,21.3l-2.9.6-7.9-.5V50c0-5.1.1-10.1-.1-15.2-.2-4.5-2-6.3-5.6-6.3-3.9,0-6.5,2.2-6.6,6.3-.3,6.1-.2,12.1-.3,18.1v3.6h-11V23.1Z" transform="translate(756.013 507.952)" fill="#6466ae"/>
      <path id="Path_7_1_" d="M269.4,57.2V21.1h10.8v4.5c0,9.4-.1,18.8,0,28.2,0,2.5-.7,3.7-3.4,3.4C274.5,57.1,272.1,57.2,269.4,57.2Z" transform="translate(756.013 507.952)" fill="#6466ae"/>
      <path id="Path_8_1_" d="M272.6,5.5c1.3.1,2.8-.2,4,.2,4.4,1.3,4.9,5.6,1.3,9.6a1.854,1.854,0,0,1-.7.2c-4,1-6.6,0-7.8-2.8C268.3,9.9,269.2,8,272.6,5.5Z" transform="translate(756.013 507.952)" fill="#6466ae"/>
      <path id="Path_9_1_" d="M373.9,44.6V4.3h10.9V23.5a18.055,18.055,0,0,1,13.5-2.8c5.1.8,8.1,3.3,9.2,8.3a32.659,32.659,0,0,1,.8,7c.1,6.8,0,13.6,0,20.6H397.5V41.4a67.809,67.809,0,0,0-.3-7.8c-.3-3.3-1.6-4.6-4.5-5-3.2-.5-6,.8-7.1,3.5A7.173,7.173,0,0,0,385,35c0,6.7.1,13.3.1,20-.7.6-1.4,1.7-2.2,1.8-2.8.2-5.6.1-9,.1Z" transform="translate(756.013 507.952)" fill="#6466ae"/>
      <path id="Path_10_1_" d="M346.6,22.6c9-3.6,16.3-2.2,22,4.3l-6.5,6.7a42.669,42.669,0,0,0-4.1-2.9,7.481,7.481,0,0,0-3.9-.9c-1,.1-1.9,1.2-2.9,1.8.7.9,1.2,2.2,2.1,2.6,2.3,1,4.7,1.5,7,2.3,3.7,1.2,7.1,2.9,8.7,6.8.9,6.8-1.9,11.3-8.4,13.2-7.9,2.3-14.5.1-20.4-5.7l7.1-6.5c1.1.8,2.4,2.2,4.1,2.8a17.406,17.406,0,0,0,6,.8c.6,0,1.7-1.3,1.7-1.9s-1-1.6-1.8-1.9c-2.8-1-5.7-1.5-8.5-2.6-6.7-2.7-8.9-7-6.8-13.8C342.8,25.6,345.1,24.2,346.6,22.6Z" transform="translate(756.013 507.952)" fill="#6466ae"/>
      <path id="Path_11_1_" d="M336,21.1V56.7H325.6V21.1Z" transform="translate(756.013 507.952)" fill="#6466ae"/>
      <path id="Path_12_1_" d="M329.4,5.2c5.3.5,6.5,1.7,6.9,6.5-1.3,1.4-2.4,3.2-4,4a5.373,5.373,0,0,1-7.1-3.1c-1.2-2.8-.1-5,2.8-6.7A6.109,6.109,0,0,0,329.4,5.2Z" transform="translate(756.013 507.952)" fill="#6466ae"/>
      <path id="Chain_link_icon_1_" d="M108.761,8.62C99.249-1.341,83.814.543,70.712.095c.9.987,2.692,1.884,4.038,3.32a28.306,28.306,0,0,1,5.474,8.525c7.269,0,14.986-.449,20.371,5.2,2.692,2.872,4.487,7.628,5.025,11.845,0,9.422-7.179,17.05-16.153,17.14H65.687c-3.59,0-8.615-2.333-11.307-5.2-6.371-6.641-5.474-14.268-2.692-21.9H39.932c-3.141,10.948-2.692,21.9,5.474,30.421a24.894,24.894,0,0,0,19.473,8.076h23.6c8.166,0,15.884-2.333,21.717-8.525,8.974-11.4,8.525-29.972-1.436-40.382Zm-74.3,37.062H26.292c-3.59,0-8.615-2.333-11.307-5.2S10.5,32.849,9.96,28.631c0-9.512,7.717-17.589,16.332-17.14h23.6c3.59,0,8.615,2.333,11.307,5.2,6.371,6.641,5.025,14.717,2.692,21.9H75.648c3.141-10.948,2.692-21.9-5.474-30.421A24.894,24.894,0,0,0,50.7.095H27.189A27.353,27.353,0,0,0,0,28.542C0,43.707,12.2,57.527,26.741,56.63H43.97a18.223,18.223,0,0,1-4.487-3.769c-2.333-2.423-4.128-4.307-5.025-7.179Z" transform="translate(770.013 512.204)" fill="#6466ae"/>
    </g>
  </g>
</svg>
